<svg width="95" height="54" viewBox="0 0 95 54" fill="none" xmlns="http://www.w3.org/2000/svg">
<path d="M41.7784 8.81818V35H38.7614V8.81818H41.7784ZM53.0827 35.4602C51.8384 35.4602 50.7092 35.2259 49.695 34.7571C48.6808 34.2798 47.8754 33.5938 47.2788 32.6989C46.6822 31.7955 46.3839 30.7045 46.3839 29.4261C46.3839 28.3011 46.6055 27.3892 47.0487 26.6903C47.4918 25.983 48.0842 25.429 48.8256 25.0284C49.5671 24.6278 50.3853 24.3295 51.2802 24.1335C52.1836 23.929 53.0913 23.767 54.0032 23.6477C55.1964 23.4943 56.1637 23.3793 56.9052 23.3026C57.6552 23.2173 58.2006 23.0767 58.5415 22.8807C58.891 22.6847 59.0657 22.3437 59.0657 21.858V21.7557C59.0657 20.4943 58.7205 19.5142 58.0302 18.8153C57.3484 18.1165 56.3129 17.767 54.9237 17.767C53.4833 17.767 52.354 18.0824 51.5359 18.7131C50.7177 19.3437 50.1424 20.017 49.81 20.733L46.9464 19.7102C47.4577 18.517 48.1396 17.5881 48.9918 16.9233C49.8526 16.25 50.7901 15.7812 51.8043 15.517C52.8271 15.2443 53.8327 15.108 54.8214 15.108C55.4521 15.108 56.1765 15.1847 56.9947 15.3381C57.8214 15.483 58.6183 15.7855 59.3853 16.2457C60.1609 16.706 60.8043 17.4006 61.3157 18.3295C61.8271 19.2585 62.0827 20.5028 62.0827 22.0625V35H59.0657V32.3409H58.9123C58.7077 32.767 58.3668 33.223 57.8896 33.7088C57.4123 34.1946 56.7773 34.608 55.9847 34.9489C55.1921 35.2898 54.2248 35.4602 53.0827 35.4602ZM53.543 32.75C54.7362 32.75 55.7418 32.5156 56.56 32.0469C57.3867 31.5781 58.0089 30.973 58.4265 30.2315C58.8526 29.4901 59.0657 28.7102 59.0657 27.892V25.1307C58.9379 25.2841 58.6566 25.4247 58.2219 25.5526C57.7958 25.6719 57.3015 25.7784 56.739 25.8722C56.185 25.9574 55.6438 26.0341 55.1154 26.1023C54.5955 26.1619 54.1737 26.2131 53.8498 26.2557C53.0657 26.358 52.3327 26.5241 51.6509 26.7543C50.9776 26.9759 50.4322 27.3125 50.0146 27.7642C49.6055 28.2074 49.4009 28.8125 49.4009 29.5795C49.4009 30.6278 49.7887 31.4205 50.5643 31.9574C51.3484 32.4858 52.3413 32.75 53.543 32.75ZM70.6065 23.1875V35H67.5895V15.3636H70.5043V18.4318H70.7599C71.2202 17.4347 71.919 16.6335 72.8565 16.0284C73.794 15.4148 75.0043 15.108 76.4872 15.108C77.8168 15.108 78.9801 15.3807 79.9773 15.9261C80.9744 16.4631 81.75 17.2812 82.304 18.3807C82.858 19.4716 83.1349 20.8523 83.1349 22.5227V35H80.1179V22.7273C80.1179 21.1847 79.7173 19.983 78.9162 19.1222C78.1151 18.2528 77.0156 17.8182 75.6179 17.8182C74.6548 17.8182 73.794 18.027 73.0355 18.4446C72.2855 18.8622 71.6932 19.4716 71.2585 20.2727C70.8239 21.0739 70.6065 22.0455 70.6065 23.1875ZM88.6481 35V15.3636H91.6651V35H88.6481ZM90.1822 12.0909C89.5941 12.0909 89.087 11.8906 88.6609 11.4901C88.2433 11.0895 88.0344 10.608 88.0344 10.0455C88.0344 9.48295 88.2433 9.00142 88.6609 8.60085C89.087 8.20028 89.5941 8 90.1822 8C90.7702 8 91.2731 8.20028 91.6907 8.60085C92.1168 9.00142 92.3299 9.48295 92.3299 10.0455C92.3299 10.608 92.1168 11.0895 91.6907 11.4901C91.2731 11.8906 90.7702 12.0909 90.1822 12.0909Z" fill="black"/>
<path d="M28.7727 41.2727C28.7045 40.697 28.428 40.25 27.9432 39.9318C27.4583 39.6136 26.8636 39.4545 26.1591 39.4545C25.6439 39.4545 25.1932 39.5379 24.8068 39.7045C24.4242 39.8712 24.125 40.1004 23.9091 40.392C23.697 40.6837 23.5909 41.0152 23.5909 41.3864C23.5909 41.697 23.6648 41.964 23.8125 42.1875C23.964 42.4072 24.1572 42.5909 24.392 42.7386C24.6269 42.8826 24.8731 43.0019 25.1307 43.0966C25.3883 43.1875 25.625 43.2614 25.8409 43.3182L27.0227 43.6364C27.3258 43.7159 27.6629 43.8258 28.0341 43.9659C28.4091 44.1061 28.767 44.2973 29.108 44.5398C29.4527 44.7784 29.7367 45.0852 29.9602 45.4602C30.1837 45.8352 30.2955 46.2955 30.2955 46.8409C30.2955 47.4697 30.1307 48.0379 29.8011 48.5455C29.4754 49.053 28.9981 49.4564 28.3693 49.7557C27.7443 50.0549 26.9848 50.2045 26.0909 50.2045C25.2576 50.2045 24.536 50.0701 23.9261 49.8011C23.3201 49.5322 22.8428 49.1572 22.4943 48.6761C22.1496 48.1951 21.9545 47.6364 21.9091 47H23.3636C23.4015 47.4394 23.5492 47.803 23.8068 48.0909C24.0682 48.375 24.3977 48.5871 24.7955 48.7273C25.197 48.8636 25.6288 48.9318 26.0909 48.9318C26.6288 48.9318 27.1117 48.8447 27.5398 48.6705C27.9678 48.4924 28.3068 48.2462 28.5568 47.9318C28.8068 47.6136 28.9318 47.2424 28.9318 46.8182C28.9318 46.4318 28.8239 46.1174 28.608 45.875C28.392 45.6326 28.108 45.4356 27.7557 45.2841C27.4034 45.1326 27.0227 45 26.6136 44.8864L25.1818 44.4773C24.2727 44.2159 23.553 43.8428 23.0227 43.358C22.4924 42.8731 22.2273 42.2386 22.2273 41.4545C22.2273 40.803 22.4034 40.2348 22.7557 39.75C23.1117 39.2614 23.589 38.8826 24.1875 38.6136C24.7898 38.3409 25.4621 38.2045 26.2045 38.2045C26.9545 38.2045 27.6212 38.339 28.2045 38.608C28.7879 38.8731 29.25 39.2367 29.5909 39.6989C29.9356 40.161 30.1174 40.6856 30.1364 41.2727H28.7727ZM36.2259 41.2727V42.4091H31.7031V41.2727H36.2259ZM33.0213 39.1818H34.3622V47.5C34.3622 47.8788 34.4171 48.1629 34.527 48.3523C34.6406 48.5379 34.7846 48.6629 34.9588 48.7273C35.1368 48.7879 35.3243 48.8182 35.5213 48.8182C35.669 48.8182 35.7902 48.8106 35.8849 48.7955C35.9796 48.7765 36.0554 48.7614 36.1122 48.75L36.3849 49.9545C36.294 49.9886 36.1671 50.0227 36.0043 50.0568C35.8414 50.0947 35.6349 50.1136 35.3849 50.1136C35.0062 50.1136 34.6349 50.0322 34.2713 49.8693C33.9115 49.7064 33.6122 49.4583 33.3736 49.125C33.1387 48.7917 33.0213 48.3712 33.0213 47.8636V39.1818ZM43.7429 46.4318V41.2727H45.0838V50H43.7429V48.5227H43.652C43.4474 48.9659 43.1293 49.3428 42.6974 49.6534C42.2656 49.9602 41.7202 50.1136 41.0611 50.1136C40.5156 50.1136 40.0308 49.9943 39.6065 49.7557C39.1823 49.5133 38.849 49.1496 38.6065 48.6648C38.3641 48.1761 38.2429 47.5606 38.2429 46.8182V41.2727H39.5838V46.7273C39.5838 47.3636 39.7618 47.8712 40.1179 48.25C40.4777 48.6288 40.9361 48.8182 41.4929 48.8182C41.8262 48.8182 42.1652 48.733 42.5099 48.5625C42.8584 48.392 43.1501 48.1307 43.3849 47.7784C43.6236 47.4261 43.7429 46.9773 43.7429 46.4318ZM50.8352 50.1818C50.108 50.1818 49.4659 49.9981 48.9091 49.6307C48.3523 49.2595 47.9167 48.7367 47.6023 48.0625C47.2879 47.3845 47.1307 46.5833 47.1307 45.6591C47.1307 44.7424 47.2879 43.947 47.6023 43.2727C47.9167 42.5985 48.3542 42.0777 48.9148 41.7102C49.4754 41.3428 50.1231 41.1591 50.858 41.1591C51.4261 41.1591 51.875 41.2538 52.2045 41.4432C52.5379 41.6288 52.7917 41.8409 52.9659 42.0795C53.1439 42.3144 53.2822 42.5076 53.3807 42.6591H53.4943V38.3636H54.8352V50H53.5398V48.6591H53.3807C53.2822 48.8182 53.142 49.0189 52.9602 49.2614C52.7784 49.5 52.5189 49.714 52.1818 49.9034C51.8447 50.089 51.3958 50.1818 50.8352 50.1818ZM51.017 48.9773C51.5549 48.9773 52.0095 48.8371 52.3807 48.5568C52.7519 48.2727 53.0341 47.8807 53.2273 47.3807C53.4205 46.8769 53.517 46.2955 53.517 45.6364C53.517 44.9848 53.4223 44.4148 53.233 43.9261C53.0436 43.4337 52.7633 43.0511 52.392 42.7784C52.0208 42.5019 51.5625 42.3636 51.017 42.3636C50.4489 42.3636 49.9754 42.5095 49.5966 42.8011C49.2216 43.089 48.9394 43.4811 48.75 43.9773C48.5644 44.4697 48.4716 45.0227 48.4716 45.6364C48.4716 46.2576 48.5663 46.822 48.7557 47.3295C48.9489 47.8333 49.233 48.2348 49.608 48.5341C49.9867 48.8295 50.4564 48.9773 51.017 48.9773ZM57.4773 50V41.2727H58.8182V50H57.4773ZM58.1591 39.8182C57.8977 39.8182 57.6723 39.7292 57.483 39.5511C57.2973 39.3731 57.2045 39.1591 57.2045 38.9091C57.2045 38.6591 57.2973 38.4451 57.483 38.267C57.6723 38.089 57.8977 38 58.1591 38C58.4205 38 58.6439 38.089 58.8295 38.267C59.0189 38.4451 59.1136 38.6591 59.1136 38.9091C59.1136 39.1591 59.0189 39.3731 58.8295 39.5511C58.6439 39.7292 58.4205 39.8182 58.1591 39.8182ZM64.8196 50.1818C64.0317 50.1818 63.3404 49.9943 62.7457 49.6193C62.1548 49.2443 61.6927 48.7197 61.3594 48.0455C61.0298 47.3712 60.8651 46.5833 60.8651 45.6818C60.8651 44.7727 61.0298 43.9792 61.3594 43.3011C61.6927 42.6231 62.1548 42.0966 62.7457 41.7216C63.3404 41.3466 64.0317 41.1591 64.8196 41.1591C65.6075 41.1591 66.2969 41.3466 66.8878 41.7216C67.4825 42.0966 67.9446 42.6231 68.2741 43.3011C68.6075 43.9792 68.7741 44.7727 68.7741 45.6818C68.7741 46.5833 68.6075 47.3712 68.2741 48.0455C67.9446 48.7197 67.4825 49.2443 66.8878 49.6193C66.2969 49.9943 65.6075 50.1818 64.8196 50.1818ZM64.8196 48.9773C65.4181 48.9773 65.9105 48.8239 66.2969 48.517C66.6832 48.2102 66.9692 47.8068 67.1548 47.3068C67.3404 46.8068 67.4332 46.2652 67.4332 45.6818C67.4332 45.0985 67.3404 44.5549 67.1548 44.0511C66.9692 43.5473 66.6832 43.1402 66.2969 42.8295C65.9105 42.5189 65.4181 42.3636 64.8196 42.3636C64.2211 42.3636 63.7287 42.5189 63.3423 42.8295C62.956 43.1402 62.67 43.5473 62.4844 44.0511C62.2988 44.5549 62.206 45.0985 62.206 45.6818C62.206 46.2652 62.2988 46.8068 62.4844 47.3068C62.67 47.8068 62.956 48.2102 63.3423 48.517C63.7287 48.8239 64.2211 48.9773 64.8196 48.9773ZM77.0028 43.2273L75.7983 43.5682C75.7225 43.3674 75.6108 43.1723 75.4631 42.983C75.3191 42.7898 75.1222 42.6307 74.8722 42.5057C74.6222 42.3807 74.3021 42.3182 73.9119 42.3182C73.3778 42.3182 72.9328 42.4413 72.5767 42.6875C72.2244 42.9299 72.0483 43.2386 72.0483 43.6136C72.0483 43.947 72.1695 44.2102 72.4119 44.4034C72.6544 44.5966 73.0331 44.7576 73.5483 44.8864L74.8438 45.2045C75.6241 45.3939 76.2055 45.6837 76.5881 46.0739C76.9706 46.4602 77.1619 46.9583 77.1619 47.5682C77.1619 48.0682 77.018 48.5152 76.7301 48.9091C76.446 49.303 76.0483 49.6136 75.5369 49.8409C75.0256 50.0682 74.4309 50.1818 73.7528 50.1818C72.8627 50.1818 72.1259 49.9886 71.5426 49.6023C70.9593 49.2159 70.59 48.6515 70.4347 47.9091L71.7074 47.5909C71.8286 48.0606 72.0578 48.4129 72.3949 48.6477C72.7358 48.8826 73.1809 49 73.7301 49C74.3551 49 74.8513 48.8674 75.2188 48.6023C75.59 48.3333 75.7756 48.0114 75.7756 47.6364C75.7756 47.3333 75.6695 47.0795 75.4574 46.875C75.2453 46.6667 74.9195 46.5114 74.4801 46.4091L73.0256 46.0682C72.2263 45.8788 71.6392 45.5852 71.2642 45.1875C70.893 44.786 70.7074 44.2841 70.7074 43.6818C70.7074 43.1894 70.8456 42.7538 71.1222 42.375C71.4025 41.9962 71.7831 41.6989 72.2642 41.483C72.7491 41.267 73.2983 41.1591 73.9119 41.1591C74.7756 41.1591 75.4536 41.3485 75.946 41.7273C76.4422 42.1061 76.7945 42.6061 77.0028 43.2273Z" fill="black"/>
<path d="M14.1 18.75L21.255 6.36001C19.0425 5.86591 16.7467 5.88055 14.5407 6.40282C12.3347 6.92508 10.2761 7.94135 8.52 9.37501L14.01 18.9L14.1 18.75ZM32.31 16.5C30.93 12.12 27.585 8.61001 23.31 6.99001L17.82 16.5H32.31ZM32.7 18H21.465L21.9 18.75L29.04 31.125C31.5911 28.3711 33.0058 24.754 33 21C33 19.965 32.895 18.975 32.7 18ZM12.81 21L6.96 10.875C5.35275 12.6157 4.18262 14.7137 3.54623 16.9959C2.90984 19.278 2.82544 21.6788 3.3 24H14.535L12.81 21ZM3.69 25.5C5.07 29.88 8.415 33.39 12.69 35.01L18.18 25.5H3.69ZM20.595 25.5L14.745 35.64C16.9575 36.1341 19.2533 36.1195 21.4593 35.5972C23.6653 35.0749 25.7239 34.0587 27.48 32.625L21.99 23.1L20.595 25.5Z" fill="black"/>
</svg>
